<svg width="50" height="50" viewBox="0 0 50 50" fill="none" xmlns="http://www.w3.org/2000/svg">
<g filter="url(#filter0_dd_97_2446)">
<rect x="5" y="1" width="40" height="40" rx="6" fill="#0072B1"/>
<path d="M28.3335 17.6667C29.6596 17.6667 30.9313 18.1935 31.869 19.1312C32.8067 20.0688 33.3335 21.3406 33.3335 22.6667V28.5H30.0002V22.6667C30.0002 22.2247 29.8246 21.8007 29.512 21.4882C29.1994 21.1756 28.7755 21 28.3335 21C27.8915 21 27.4675 21.1756 27.155 21.4882C26.8424 21.8007 26.6668 22.2247 26.6668 22.6667V28.5H23.3335V22.6667C23.3335 21.3406 23.8603 20.0688 24.798 19.1312C25.7356 18.1935 27.0074 17.6667 28.3335 17.6667Z" stroke="white" stroke-width="1.66667" stroke-linecap="round" stroke-linejoin="round"/>
<path d="M19.9998 18.5H16.6665V28.5H19.9998V18.5Z" stroke="white" stroke-width="1.66667" stroke-linecap="round" stroke-linejoin="round"/>
<path d="M18.3332 16C19.2536 16 19.9998 15.2538 19.9998 14.3334C19.9998 13.4129 19.2536 12.6667 18.3332 12.6667C17.4127 12.6667 16.6665 13.4129 16.6665 14.3334C16.6665 15.2538 17.4127 16 18.3332 16Z" stroke="white" stroke-width="1.66667" stroke-linecap="round" stroke-linejoin="round"/>
</g>
<defs>
<filter id="filter0_dd_97_2446" x="0" y="0" width="50" height="50" filterUnits="userSpaceOnUse" color-interpolation-filters="sRGB">
<feFlood flood-opacity="0" result="BackgroundImageFix"/>
<feColorMatrix in="SourceAlpha" type="matrix" values="0 0 0 0 0 0 0 0 0 0 0 0 0 0 0 0 0 0 127 0" result="hardAlpha"/>
<feMorphology radius="2" operator="erode" in="SourceAlpha" result="effect1_dropShadow_97_2446"/>
<feOffset dy="2"/>
<feGaussianBlur stdDeviation="2"/>
<feComposite in2="hardAlpha" operator="out"/>
<feColorMatrix type="matrix" values="0 0 0 0 0 0 0 0 0 0 0 0 0 0 0 0 0 0 0.1 0"/>
<feBlend mode="normal" in2="BackgroundImageFix" result="effect1_dropShadow_97_2446"/>
<feColorMatrix in="SourceAlpha" type="matrix" values="0 0 0 0 0 0 0 0 0 0 0 0 0 0 0 0 0 0 127 0" result="hardAlpha"/>
<feMorphology radius="1" operator="erode" in="SourceAlpha" result="effect2_dropShadow_97_2446"/>
<feOffset dy="4"/>
<feGaussianBlur stdDeviation="3"/>
<feComposite in2="hardAlpha" operator="out"/>
<feColorMatrix type="matrix" values="0 0 0 0 0 0 0 0 0 0 0 0 0 0 0 0 0 0 0.1 0"/>
<feBlend mode="normal" in2="effect1_dropShadow_97_2446" result="effect2_dropShadow_97_2446"/>
<feBlend mode="normal" in="SourceGraphic" in2="effect2_dropShadow_97_2446" result="shape"/>
</filter>
</defs>
</svg>
