<svg width="16" height="16" viewBox="0 0 16 16" fill="none" xmlns="http://www.w3.org/2000/svg">
<g clip-path="url(#clip0_97_2277)">
<path d="M13.3332 6.66671C13.3332 9.99537 9.6405 13.462 8.4005 14.5327C8.28499 14.6196 8.14437 14.6665 7.99984 14.6665C7.85531 14.6665 7.71469 14.6196 7.59917 14.5327C6.35917 13.462 2.6665 9.99537 2.6665 6.66671C2.6665 5.25222 3.22841 3.89567 4.2286 2.89547C5.2288 1.89528 6.58535 1.33337 7.99984 1.33337C9.41433 1.33337 10.7709 1.89528 11.7711 2.89547C12.7713 3.89567 13.3332 5.25222 13.3332 6.66671Z" stroke="#483C32" stroke-width="1.33333" stroke-linecap="round" stroke-linejoin="round"/>
<path d="M8 8.66663C9.10457 8.66663 10 7.7712 10 6.66663C10 5.56206 9.10457 4.66663 8 4.66663C6.89543 4.66663 6 5.56206 6 6.66663C6 7.7712 6.89543 8.66663 8 8.66663Z" stroke="#483C32" stroke-width="1.33333" stroke-linecap="round" stroke-linejoin="round"/>
</g>
<defs>
<clipPath id="clip0_97_2277">
<rect width="16" height="16" fill="white"/>
</clipPath>
</defs>
</svg>
