<svg width="24" height="24" viewBox="0 0 24 24" fill="none" xmlns="http://www.w3.org/2000/svg">
<path d="M5 10.6667C5 9.34057 5.52678 8.0688 6.46447 7.13112C7.40215 6.19344 8.67392 5.66666 10 5.66666C11.3261 5.66666 12.5979 6.19344 13.5355 7.13112C14.4732 8.0688 15 9.34057 15 10.6667C15 16.5 17.5 18.1667 17.5 18.1667H2.5C2.5 18.1667 5 16.5 5 10.6667Z" stroke="#6B7280" stroke-width="1.66667" stroke-linecap="round" stroke-linejoin="round"/>
<path d="M8.58325 21.5C8.72274 21.7537 8.92779 21.9653 9.17699 22.1127C9.4262 22.26 9.7104 22.3378 9.99992 22.3378C10.2894 22.3378 10.5736 22.26 10.8228 22.1127C11.072 21.9653 11.2771 21.7537 11.4166 21.5" stroke="#6B7280" stroke-width="1.66667" stroke-linecap="round" stroke-linejoin="round"/>
<rect x="16" width="8" height="8" rx="4" fill="#3E2723"/>
</svg>
