<svg width="18" height="18" viewBox="0 0 18 18" fill="none" xmlns="http://www.w3.org/2000/svg">
<path d="M10.9021 16.2645C10.9306 16.3356 10.9801 16.3962 11.0441 16.4382C11.108 16.4802 11.1832 16.5017 11.2597 16.4998C11.3362 16.4978 11.4103 16.4725 11.472 16.4272C11.5337 16.382 11.58 16.3189 11.6048 16.2465L16.4798 1.99654C16.5039 1.93009 16.5084 1.85817 16.4931 1.78921C16.4777 1.72024 16.443 1.65709 16.393 1.60713C16.3431 1.55716 16.2799 1.52246 16.2109 1.50709C16.142 1.49171 16.0701 1.49629 16.0036 1.52029L1.7536 6.39529C1.68122 6.42011 1.61817 6.46648 1.5729 6.52817C1.52764 6.58986 1.50233 6.66392 1.50037 6.74041C1.49841 6.8169 1.51989 6.89216 1.56194 6.95609C1.60399 7.02001 1.66459 7.06955 1.7356 7.09804L7.6831 9.48304C7.87111 9.55832 8.04194 9.67089 8.18527 9.81396C8.32861 9.95704 8.44148 10.1277 8.5171 10.3155L10.9021 16.2645Z" stroke="#AE9179" stroke-width="1.5" stroke-linecap="round" stroke-linejoin="round"/>
<path d="M16.3905 1.61023L8.18555 9.81448" stroke="#AE9179" stroke-width="1.5" stroke-linecap="round" stroke-linejoin="round"/>
</svg>
