<svg width="20" height="20" viewBox="0 0 20 20" fill="none" xmlns="http://www.w3.org/2000/svg">
<path d="M8.28086 12.9167C8.20647 12.6283 8.05615 12.3651 7.84555 12.1545C7.63494 11.9439 7.37176 11.7936 7.08336 11.7192L1.97086 10.4008C1.88364 10.3761 1.80687 10.3236 1.75221 10.2512C1.69754 10.1789 1.66797 10.0907 1.66797 10C1.66797 9.90934 1.69754 9.82115 1.75221 9.74881C1.80687 9.67647 1.88364 9.62394 1.97086 9.59918L7.08336 8.28001C7.37166 8.20569 7.63477 8.05549 7.84537 7.84505C8.05596 7.6346 8.20634 7.37159 8.28086 7.08335L9.5992 1.97085C9.6237 1.88328 9.67618 1.80613 9.74863 1.75118C9.82108 1.69622 9.90951 1.66647 10.0004 1.66647C10.0914 1.66647 10.1798 1.69622 10.2523 1.75118C10.3247 1.80613 10.3772 1.88328 10.4017 1.97085L11.7192 7.08335C11.7936 7.37174 11.9439 7.63493 12.1545 7.84553C12.3651 8.05613 12.6283 8.20645 12.9167 8.28085L18.0292 9.59835C18.1171 9.6226 18.1946 9.67502 18.2499 9.74758C18.3052 9.82013 18.3351 9.90881 18.3351 10C18.3351 10.0912 18.3052 10.1799 18.2499 10.2524C18.1946 10.325 18.1171 10.3774 18.0292 10.4017L12.9167 11.7192C12.6283 11.7936 12.3651 11.9439 12.1545 12.1545C11.9439 12.3651 11.7936 12.6283 11.7192 12.9167L10.4009 18.0292C10.3764 18.1167 10.3239 18.1939 10.2514 18.2489C10.179 18.3038 10.0905 18.3336 9.99961 18.3336C9.90868 18.3336 9.82025 18.3038 9.7478 18.2489C9.67535 18.1939 9.62287 18.1167 9.59836 18.0292L8.28086 12.9167Z" stroke="white" stroke-width="1.66667" stroke-linecap="round" stroke-linejoin="round"/>
<path d="M16.6667 2.5V5.83333" stroke="white" stroke-width="1.66667" stroke-linecap="round" stroke-linejoin="round"/>
<path d="M18.3333 4.16666H15" stroke="white" stroke-width="1.66667" stroke-linecap="round" stroke-linejoin="round"/>
<path d="M3.33325 14.1667V15.8334" stroke="white" stroke-width="1.66667" stroke-linecap="round" stroke-linejoin="round"/>
<path d="M4.16667 15H2.5" stroke="white" stroke-width="1.66667" stroke-linecap="round" stroke-linejoin="round"/>
</svg>
