<svg width="19" height="18" viewBox="0 0 19 18" fill="none" xmlns="http://www.w3.org/2000/svg">
<path d="M11.8301 1.5H7.33008C6.91586 1.5 6.58008 1.83579 6.58008 2.25V3.75C6.58008 4.16421 6.91586 4.5 7.33008 4.5H11.8301C12.2443 4.5 12.5801 4.16421 12.5801 3.75V2.25C12.5801 1.83579 12.2443 1.5 11.8301 1.5Z" stroke="#483C32" stroke-width="1.5" stroke-linecap="round" stroke-linejoin="round"/>
<path d="M12.5801 3H14.0801C14.4779 3 14.8594 3.15804 15.1407 3.43934C15.422 3.72064 15.5801 4.10218 15.5801 4.5V15C15.5801 15.3978 15.422 15.7794 15.1407 16.0607C14.8594 16.342 14.4779 16.5 14.0801 16.5H5.08008C4.68225 16.5 4.30072 16.342 4.01942 16.0607C3.73811 15.7794 3.58008 15.3978 3.58008 15V4.5C3.58008 4.10218 3.73811 3.72064 4.01942 3.43934C4.30072 3.15804 4.68225 3 5.08008 3H6.58008" stroke="#483C32" stroke-width="1.5" stroke-linecap="round" stroke-linejoin="round"/>
<path d="M9.58008 8.25H12.5801" stroke="#483C32" stroke-width="1.5" stroke-linecap="round" stroke-linejoin="round"/>
<path d="M9.58008 12H12.5801" stroke="#483C32" stroke-width="1.5" stroke-linecap="round" stroke-linejoin="round"/>
<path d="M6.58008 8.25H6.58758" stroke="#483C32" stroke-width="1.5" stroke-linecap="round" stroke-linejoin="round"/>
<path d="M6.58008 12H6.58758" stroke="#483C32" stroke-width="1.5" stroke-linecap="round" stroke-linejoin="round"/>
</svg>
