<svg width="20" height="20" viewBox="0 0 20 20" fill="none" xmlns="http://www.w3.org/2000/svg">
<path d="M12.5003 1.66666H7.50033C7.04009 1.66666 6.66699 2.03975 6.66699 2.49999V4.16666C6.66699 4.62689 7.04009 4.99999 7.50033 4.99999H12.5003C12.9606 4.99999 13.3337 4.62689 13.3337 4.16666V2.49999C13.3337 2.03975 12.9606 1.66666 12.5003 1.66666Z" stroke="#8D6E63" stroke-width="1.66667" stroke-linecap="round" stroke-linejoin="round"/>
<path d="M13.333 3.33334H14.9997C15.4417 3.33334 15.8656 3.50894 16.1782 3.8215C16.4907 4.13406 16.6663 4.55798 16.6663 5.00001V16.6667C16.6663 17.1087 16.4907 17.5326 16.1782 17.8452C15.8656 18.1577 15.4417 18.3333 14.9997 18.3333H4.99967C4.55765 18.3333 4.13372 18.1577 3.82116 17.8452C3.5086 17.5326 3.33301 17.1087 3.33301 16.6667V5.00001C3.33301 4.55798 3.5086 4.13406 3.82116 3.8215C4.13372 3.50894 4.55765 3.33334 4.99967 3.33334H6.66634" stroke="#8D6E63" stroke-width="1.66667" stroke-linecap="round" stroke-linejoin="round"/>
<path d="M10 9.16666H13.3333" stroke="#8D6E63" stroke-width="1.66667" stroke-linecap="round" stroke-linejoin="round"/>
<path d="M10 13.3333H13.3333" stroke="#8D6E63" stroke-width="1.66667" stroke-linecap="round" stroke-linejoin="round"/>
<path d="M6.66699 9.16666H6.67533" stroke="#8D6E63" stroke-width="1.66667" stroke-linecap="round" stroke-linejoin="round"/>
<path d="M6.66699 13.3333H6.67533" stroke="#8D6E63" stroke-width="1.66667" stroke-linecap="round" stroke-linejoin="round"/>
</svg>
