<svg width="124" height="45" viewBox="0 0 124 45" fill="none" xmlns="http://www.w3.org/2000/svg">
<path d="M35.2902 40.1387L41.6402 24.6387H41.6736L48.0236 40.1387H46.0069L44.2402 35.6887H38.9902L37.2069 40.1387H35.2902ZM39.6236 34.1053H43.6069L42.4236 31.1387C42.2791 30.7609 42.1402 30.3887 42.0069 30.022C41.8736 29.6553 41.7402 29.2164 41.6069 28.7053C41.4736 29.2164 41.3458 29.6553 41.2236 30.022C41.1013 30.3776 40.9625 30.7498 40.8069 31.1387L39.6236 34.1053ZM58.9095 40.1387L52.5262 30.8887L57.6595 25.1387H59.8928L54.7928 30.872L61.2262 40.1387H58.9095ZM50.4262 40.1387V25.1387H52.3262V40.1387H50.4262ZM61.1262 26.8387V25.1387H71.0262V26.8387H67.0262V40.1387H65.1262V26.8387H61.1262ZM74.134 40.1387V25.1387H76.034V40.1387H74.134ZM88.9095 40.1387L82.5262 30.8887L87.6595 25.1387H89.8928L84.7928 30.872L91.2262 40.1387H88.9095ZM80.4262 40.1387V25.1387H82.3262V40.1387H80.4262ZM91.634 40.1387L97.984 24.6387H98.0173L104.367 40.1387H102.351L100.584 35.6887H95.334L93.5507 40.1387H91.634ZM95.9673 34.1053H99.9507L98.7673 31.1387C98.6229 30.7609 98.484 30.3887 98.3507 30.022C98.2173 29.6553 98.084 29.2164 97.9507 28.7053C97.8173 29.2164 97.6895 29.6553 97.5673 30.022C97.4451 30.3776 97.3062 30.7498 97.1507 31.1387L95.9673 34.1053ZM106.77 40.1387V25.1387H108.67V38.4387H113.87V40.1387H106.77Z" fill="#8D6E63"/>
<path d="M40.182 0H0V1.77291H40.182V0Z" fill="#8D6E63"/>
<path d="M40.182 3.5459H0V5.31881H40.182V3.5459Z" fill="#8D6E63"/>
<path d="M40.182 7.09155H0V8.86447H40.182V7.09155Z" fill="#8D6E63"/>
<path d="M16.7454 8.86475H14.7363V44.323H16.7454V8.86475Z" fill="#8D6E63"/>
<path d="M21.7669 8.86475H19.7578V44.323H21.7669V8.86475Z" fill="#8D6E63"/>
<path d="M26.7879 8.86475H24.7788V44.323H26.7879V8.86475Z" fill="#8D6E63"/>
</svg>
