<svg width="14" height="14" viewBox="0 0 14 14" fill="none" xmlns="http://www.w3.org/2000/svg">
<g clip-path="url(#clip0_97_1396)">
<path d="M9.33341 12.25V11.0833C9.33341 10.4645 9.08758 9.871 8.65 9.43342C8.21241 8.99583 7.61892 8.75 7.00008 8.75H3.50008C2.88124 8.75 2.28775 8.99583 1.85017 9.43342C1.41258 9.871 1.16675 10.4645 1.16675 11.0833V12.25" stroke="#F5F5DC" stroke-width="1.16667" stroke-linecap="round" stroke-linejoin="round"/>
<path d="M5.25008 6.41667C6.53875 6.41667 7.58341 5.372 7.58341 4.08333C7.58341 2.79467 6.53875 1.75 5.25008 1.75C3.96142 1.75 2.91675 2.79467 2.91675 4.08333C2.91675 5.372 3.96142 6.41667 5.25008 6.41667Z" stroke="#F5F5DC" stroke-width="1.16667" stroke-linecap="round" stroke-linejoin="round"/>
<path d="M12.8333 12.25V11.0833C12.8329 10.5663 12.6608 10.0641 12.344 9.65549C12.0273 9.24689 11.5838 8.95505 11.0833 8.82581" stroke="#F5F5DC" stroke-width="1.16667" stroke-linecap="round" stroke-linejoin="round"/>
<path d="M9.33325 1.82581C9.83516 1.95431 10.28 2.24621 10.5977 2.65549C10.9154 3.06476 11.0878 3.56812 11.0878 4.08622C11.0878 4.60432 10.9154 5.10769 10.5977 5.51696C10.28 5.92623 9.83516 6.21813 9.33325 6.34664" stroke="#F5F5DC" stroke-width="1.16667" stroke-linecap="round" stroke-linejoin="round"/>
</g>
<defs>
<clipPath id="clip0_97_1396">
<rect width="14" height="14" fill="white"/>
</clipPath>
</defs>
</svg>
