<svg width="50" height="50" viewBox="0 0 50 50" fill="none" xmlns="http://www.w3.org/2000/svg">
<g filter="url(#filter0_dd_97_2472)">
<rect x="5" y="1" width="40" height="40" rx="6" fill="#212121"/>
<path d="M28.3335 21.8333L32.686 24.735C32.7487 24.7768 32.8216 24.8007 32.8969 24.8043C32.9722 24.8079 33.0471 24.791 33.1135 24.7554C33.1799 24.7199 33.2355 24.6669 33.2742 24.6023C33.313 24.5376 33.3335 24.4637 33.3335 24.3883V17.5583C33.3335 17.485 33.3142 17.413 33.2775 17.3495C33.2408 17.2861 33.188 17.2334 33.1244 17.1969C33.0608 17.1604 32.9887 17.1413 32.9154 17.1415C32.8421 17.1418 32.7702 17.1614 32.7068 17.1983L28.3335 19.75" stroke="white" stroke-width="1.66667" stroke-linecap="round" stroke-linejoin="round"/>
<path d="M26.6665 16H18.3332C17.4127 16 16.6665 16.7462 16.6665 17.6667V24.3333C16.6665 25.2538 17.4127 26 18.3332 26H26.6665C27.587 26 28.3332 25.2538 28.3332 24.3333V17.6667C28.3332 16.7462 27.587 16 26.6665 16Z" stroke="white" stroke-width="1.66667" stroke-linecap="round" stroke-linejoin="round"/>
</g>
<defs>
<filter id="filter0_dd_97_2472" x="0" y="0" width="50" height="50" filterUnits="userSpaceOnUse" color-interpolation-filters="sRGB">
<feFlood flood-opacity="0" result="BackgroundImageFix"/>
<feColorMatrix in="SourceAlpha" type="matrix" values="0 0 0 0 0 0 0 0 0 0 0 0 0 0 0 0 0 0 127 0" result="hardAlpha"/>
<feMorphology radius="2" operator="erode" in="SourceAlpha" result="effect1_dropShadow_97_2472"/>
<feOffset dy="2"/>
<feGaussianBlur stdDeviation="2"/>
<feComposite in2="hardAlpha" operator="out"/>
<feColorMatrix type="matrix" values="0 0 0 0 0 0 0 0 0 0 0 0 0 0 0 0 0 0 0.1 0"/>
<feBlend mode="normal" in2="BackgroundImageFix" result="effect1_dropShadow_97_2472"/>
<feColorMatrix in="SourceAlpha" type="matrix" values="0 0 0 0 0 0 0 0 0 0 0 0 0 0 0 0 0 0 127 0" result="hardAlpha"/>
<feMorphology radius="1" operator="erode" in="SourceAlpha" result="effect2_dropShadow_97_2472"/>
<feOffset dy="4"/>
<feGaussianBlur stdDeviation="3"/>
<feComposite in2="hardAlpha" operator="out"/>
<feColorMatrix type="matrix" values="0 0 0 0 0 0 0 0 0 0 0 0 0 0 0 0 0 0 0.1 0"/>
<feBlend mode="normal" in2="effect1_dropShadow_97_2472" result="effect2_dropShadow_97_2472"/>
<feBlend mode="normal" in="SourceGraphic" in2="effect2_dropShadow_97_2472" result="shape"/>
</filter>
</defs>
</svg>
